<svg xmlns="http://www.w3.org/2000/svg" viewBox="0 0 100 110">
  <defs>
    <clipPath id="s">
      <path d="M28 5C18 5 10 6 8 14C7 22 7 30 8 40C9 64 16 84 50 106C84 84 91 64 92 40C93 30 93 22 92 14C90 6 82 5 72 5C62 5 58 11 50 11C42 11 38 5 28 5Z"/>
    </clipPath>
  </defs>
  <g clip-path="url(#s)">
    <rect width="100" height="110" fill="#0b3b8c"/>
    <rect width="100" height="32" fill="#c8102e"/>
  </g>
  <path d="M28 5C18 5 10 6 8 14C7 22 7 30 8 40C9 64 16 84 50 106C84 84 91 64 92 40C93 30 93 22 92 14C90 6 82 5 72 5C62 5 58 11 50 11C42 11 38 5 28 5Z" fill="none" stroke="#ffffff" stroke-width="8" stroke-linejoin="round"/>
  <text x="50" y="78" text-anchor="middle" font-family="Arial, sans-serif" font-size="34" font-weight="800" fill="#ffffff">II</text>
</svg>
