<svg xmlns="http://www.w3.org/2000/svg" viewBox="0 0 1200 630" width="1200" height="630">
  <defs>
    <clipPath id="s">
      <path d="M28 5C18 5 10 6 8 14C7 22 7 30 8 40C9 64 16 84 50 106C84 84 91 64 92 40C93 30 93 22 92 14C90 6 82 5 72 5C62 5 58 11 50 11C42 11 38 5 28 5Z"/>
    </clipPath>
    <pattern id="grid" width="48" height="48" patternUnits="userSpaceOnUse">
      <path d="M48 0H0V48" fill="none" stroke="#1c2433" stroke-width="1"/>
    </pattern>
  </defs>

  <rect width="1200" height="630" fill="#0b0f17"/>
  <rect width="1200" height="630" fill="url(#grid)"/>
  <rect x="0" y="0" width="1200" height="8" fill="#1f9d57"/>

  <!-- shield -->
  <g transform="translate(120 175) scale(2.6)">
    <g clip-path="url(#s)">
      <rect width="100" height="110" fill="#0b3b8c"/>
      <rect width="100" height="32" fill="#c8102e"/>
    </g>
    <path d="M28 5C18 5 10 6 8 14C7 22 7 30 8 40C9 64 16 84 50 106C84 84 91 64 92 40C93 30 93 22 92 14C90 6 82 5 72 5C62 5 58 11 50 11C42 11 38 5 28 5Z" fill="none" stroke="#ffffff" stroke-width="6" stroke-linejoin="round"/>
    <text x="50" y="24" text-anchor="middle" font-family="Arial, sans-serif" font-size="12" font-weight="700" fill="#ffffff">INTERSTATE</text>
    <text x="50" y="84" text-anchor="middle" font-family="Arial, sans-serif" font-size="40" font-weight="800" fill="#ffffff">95</text>
  </g>

  <!-- copy -->
  <text x="470" y="270" font-family="Arial, Helvetica, sans-serif" font-size="78" font-weight="800" fill="#e9eef6">Multiplex</text>
  <text x="472" y="340" font-family="Arial, Helvetica, sans-serif" font-size="32" font-weight="500" fill="#9aabc0">A reference atlas for the U.S. Interstate</text>
  <text x="472" y="382" font-family="Arial, Helvetica, sans-serif" font-size="32" font-weight="500" fill="#9aabc0">Highway System.</text>
  <text x="472" y="452" font-family="monospace" font-size="24" font-weight="600" fill="#34c074">1,005 records  -  104 routes  -  every number decoded</text>
</svg>
